<svg width="154" height="32" viewBox="0 0 154 32" fill="none" xmlns="http://www.w3.org/2000/svg">
<g clip-path="url(#clip0_844:18563)">
<path d="M33.96 24.2514C31.4361 23.186 30.1638 21.9953 30.1638 19.99C30.1638 18.653 30.7589 17.5668 31.5592 16.8774C32.5646 16.0418 33.8779 15.7494 35.1911 15.7494C36.7096 15.7494 37.5304 16.0001 39.4592 16.5223C39.4592 17.4623 39.4592 19.5513 39.4592 19.9482H38.187C38.1665 19.1544 38.146 18.4859 37.7766 17.8801C37.2431 17.0445 36.2171 16.7312 35.2322 16.7312C33.1597 16.7312 32.2568 17.8801 32.2568 19.0917C32.2568 20.3033 32.9135 20.8673 35.3348 21.9327C38.2281 23.2278 40.1774 24.0634 40.1774 26.7999C40.1774 29.808 37.8177 31.4374 35.0065 31.4374C33.8984 31.4374 32.934 31.2912 31.2309 30.7272C30.4921 30.4765 30.2049 30.3929 30.2049 30.3929C30.2049 28.8889 30.2049 28.0533 30.2049 26.0479H31.4771C31.4976 27.6564 31.5592 30.3094 34.9654 30.3094C37.1816 30.3094 38.2075 29.1813 38.2075 27.7191C38.2075 26.4239 37.5919 25.7346 35.0886 24.6483L33.96 24.2514Z" fill="#121617"/>
<path d="M85.4233 24.2514C82.8994 23.186 81.6272 21.9953 81.6272 19.99C81.6272 18.653 82.2223 17.5668 83.0225 16.8774C84.028 16.0418 85.3413 15.7494 86.6545 15.7494C88.173 15.7494 88.9938 16.0001 90.9226 16.5223C90.9226 17.4623 90.9226 19.5513 90.9226 19.9482H89.6504C89.6299 19.1544 89.6094 18.4859 89.24 17.8801C88.7065 17.0445 87.6805 16.7312 86.6956 16.7312C84.6231 16.7312 83.7202 17.8801 83.7202 19.0917C83.7202 20.3033 84.3768 20.8673 86.7982 21.9327C89.6914 23.2278 91.6408 24.0634 91.6408 26.7999C91.6408 29.808 89.281 31.4374 86.4698 31.4374C85.3618 31.4374 84.3974 31.2912 82.6942 30.7272C81.9555 30.4765 81.6682 30.3929 81.6682 30.3929C81.6682 28.8889 81.6682 28.0533 81.6682 26.0479H82.9405C82.961 27.6564 83.0225 30.3094 86.4288 30.3094C88.6449 30.3094 89.6709 29.1813 89.6709 27.7191C89.6709 26.4239 89.0553 25.7346 86.5519 24.6483L85.4233 24.2514Z" fill="#121617"/>
<path d="M46.4975 17.1698H45.451C45.451 17.1698 44.0762 17.2116 43.5837 17.3369C42.5782 17.5876 42.4141 18.5276 42.2089 19.8645H41.4291C41.4291 18.0472 41.4496 17.8383 41.4496 16.188C43.2554 16.188 46.4154 16.188 48.57 16.188C50.2115 16.188 52.6739 16.188 54.0487 16.188C54.0487 17.8174 54.0487 17.9845 54.0487 19.8854H53.2279C53.1458 18.0263 52.6534 17.5458 51.8531 17.3369C51.2991 17.1907 50.3141 17.1698 49.9243 17.1698H48.8572V28.9515C48.8572 30.4555 49.5344 30.4555 50.2936 30.4555H51.0323V31.1031C49.9243 31.1031 48.7957 31.1031 47.6466 31.1031C46.4975 31.1031 45.3689 31.1031 44.2608 31.1031V30.4555H44.9995C45.7382 30.4555 46.477 30.4555 46.477 28.9515V17.1698H46.4975Z" fill="#121617"/>
<path d="M72.4549 17.1698H71.4084C71.3673 17.1698 70.0335 17.2116 69.5411 17.3369C68.5356 17.5876 68.3715 18.5276 68.1663 19.8645H67.3865C67.3865 18.0472 67.407 17.8383 67.407 16.188C69.2127 16.188 72.3728 16.188 74.5273 16.188C76.1689 16.188 78.6313 16.188 80.0061 16.188C80.0061 17.8174 80.0061 17.9845 80.0061 19.8854H79.1853C79.1032 18.0263 78.6107 17.5458 77.8105 17.3369C77.277 17.1907 76.292 17.1698 75.9022 17.1698H74.8351V28.9515C74.8351 30.4555 75.5123 30.4555 76.2715 30.4555H77.0102V31.1031C75.9022 31.1031 74.7736 31.1031 73.6245 31.1031C72.4754 31.1031 71.3468 31.1031 70.2387 31.1031V30.4555H70.9774C71.7161 30.4555 72.4549 30.4555 72.4549 28.9515V17.1698Z" fill="#121617"/>
<path d="M62.8312 25.4212H57.6397L56.1623 29.1813C56.0392 29.4946 55.9777 29.6617 55.9777 29.8288C55.9777 30.4973 56.9626 30.4764 57.8449 30.4346V31.0822C56.86 31.0822 53.6795 31.0822 52.9202 31.0822V30.4346C54.0283 30.3929 54.3976 30.372 54.9517 28.9933L60.3689 16.1671H61.7026L67.1198 29.9751C67.1814 30.184 67.3661 30.4764 68.4741 30.4137V31.0613C67.6123 31.0613 64.0008 31.0613 62.5234 31.0613V30.4137C64.206 30.4137 64.719 30.3511 64.1445 28.9724L62.8312 25.4212ZM62.4619 24.4394L60.2868 18.6947L58.0296 24.4394H62.4619Z" fill="#121617"/>
<path d="M95.56 18.7365C95.56 17.316 95.4164 16.8982 94.4314 16.8147C94.2673 16.8147 94.0416 16.8147 93.7748 16.8356V16.188C94.7803 16.188 100.321 16.188 100.567 16.188C101.572 16.188 102.475 16.188 103.296 16.5849C104.835 17.3369 104.958 19.0081 104.958 19.4467C104.958 20.2405 104.732 20.9926 104.137 21.7028C103.378 22.6011 102.393 22.9562 101.921 23.1024C102.598 23.2277 103.788 23.4158 104.732 24.2096C105.574 24.9198 106.128 26.006 106.128 27.1967C106.128 28.4919 105.492 29.7035 104.507 30.4346C103.419 31.2075 102.126 31.1031 101.326 31.1031C100.977 31.1031 96.4219 31.1031 96.1551 31.1031C95.3138 31.1031 94.4314 31.1031 93.6107 31.1031V30.4555C94.9855 30.4973 95.5395 30.4973 95.5395 28.7843V18.7365H95.56ZM97.8377 22.7055C98.8842 22.7682 100.526 22.8726 101.244 22.6011C101.86 22.3504 102.701 21.7446 102.701 19.9481C102.701 19.0707 102.496 18.1516 101.819 17.6085C101.162 17.0653 100.259 17.0445 99.9102 17.0445C99.4793 17.0445 98.679 17.0862 98.2686 17.1907C97.8787 17.2951 97.8172 17.3369 97.8377 18.2352V22.7055ZM97.8377 29.0768C97.8377 29.7662 97.8993 29.9124 98.166 30.0377C98.5559 30.2257 100.136 30.2884 100.567 30.2884C101.223 30.2884 101.901 30.2048 102.475 29.8288C103.686 29.0768 103.747 27.5728 103.747 27.2385C103.747 26.7163 103.604 25.7136 102.988 25.0034C102.188 24.0842 101.121 23.4784 97.8377 23.6873V29.0768Z" fill="#121617"/>
<path d="M112.612 24.4185L108.467 18.0681C107.79 17.0027 107.564 16.7938 106.271 16.8147V16.1671C107.297 16.1671 111.401 16.1671 112.55 16.1671V16.8147C112.366 16.8147 112.304 16.8147 111.75 16.8356C111.34 16.8565 110.888 16.8565 110.888 17.2116C110.888 17.2743 110.888 17.3787 111.093 17.692L114.664 23.374L117.639 18.9036C118.193 18.0889 118.481 17.7965 118.501 17.2951C118.522 17.0027 118.214 16.8147 116.901 16.8356V16.188C117.865 16.188 120.738 16.188 121.394 16.188V16.8565C120.676 16.8356 120.225 17.0445 119.835 17.5876L114.972 24.4811V28.9306C114.972 29.4319 115.074 30.1631 115.628 30.3511C115.916 30.4555 116.654 30.4346 117.167 30.4346V31.0822C115.772 31.0822 111.442 31.0822 110.355 31.0822V30.4346H111.134C111.914 30.4346 112.632 30.4346 112.632 28.9306V24.4185H112.612Z" fill="#121617"/>
<path d="M130.731 23.7918C131.921 23.7918 132.475 23.7918 134.075 23.7918C134.896 23.7918 136.004 23.7918 136.846 23.7918V24.4812C135.327 24.4812 135.307 24.6901 135.307 25.8181L135.245 30.2049C134.609 30.372 134.26 30.4556 133.829 30.5809C131.654 31.2494 130.443 31.4792 129.11 31.4792C124.021 31.4792 121.189 27.8444 121.189 23.2487C121.189 20.3242 122.461 18.465 123.795 17.3788C125.519 16 127.448 15.7703 128.946 15.7703C130.136 15.7703 130.854 15.8956 132.434 16.1463C134.117 16.4178 134.137 16.4178 134.999 16.4596C134.999 18.1517 134.999 18.6948 134.999 20.5748H133.952C133.85 19.6975 133.706 18.8828 132.947 18.1517C132.003 17.2534 130.546 16.8356 129.233 16.8356C125.621 16.8356 123.754 19.4677 123.754 22.8727C123.754 24.899 124.411 26.7999 125.293 27.9697C126.812 30.0378 128.72 30.2258 129.91 30.2258C130.546 30.2258 131.203 30.1631 131.9 29.9542C132.926 29.6409 132.926 29.244 132.926 28.2831V25.9852C132.926 24.6274 132.844 24.5647 131.346 24.5647H130.71V23.7918H130.731Z" fill="#121617"/>
<path d="M147.885 23.7918C149.075 23.7918 149.629 23.7918 151.23 23.7918C152.051 23.7918 153.159 23.7918 154 23.7918V24.4812C152.482 24.4812 152.461 24.6901 152.461 25.8181L152.399 30.2049C151.763 30.372 151.415 30.4556 150.984 30.5809C148.809 31.2494 147.598 31.4792 146.264 31.4792C141.175 31.4792 138.344 27.8444 138.344 23.2487C138.344 20.3242 139.616 18.465 140.95 17.3788C142.673 16 144.602 15.7703 146.1 15.7703C147.29 15.7703 148.008 15.8956 149.588 16.1463C151.271 16.4178 151.291 16.4178 152.153 16.4596C152.153 18.1517 152.153 18.6948 152.153 20.5748H151.107C151.004 19.6975 150.861 18.8828 150.101 18.1517C149.157 17.2534 147.7 16.8356 146.387 16.8356C142.776 16.8356 140.908 19.4677 140.908 22.8727C140.908 24.899 141.565 26.7999 142.447 27.9697C143.966 30.0378 145.874 30.2258 147.064 30.2258C147.701 30.2258 148.357 30.1631 149.055 29.9542C150.081 29.6409 150.081 29.244 150.081 28.2831V25.9852C150.081 24.6274 149.999 24.5647 148.501 24.5647H147.865V23.7918H147.885Z" fill="#121617"/>
<path d="M0 21.0344L1.37482 22.4966H19.9041L21.2378 21.0135L10.6087 15.6658L0 21.0344Z" fill="#121617"/>
<path d="M19.8219 24.1261H1.4158V25.2959H19.8219V24.1261Z" fill="#121617"/>
<path d="M19.8219 26.9669H1.4158V28.1367H19.8219V26.9669Z" fill="#121617"/>
<path d="M19.8219 29.808H1.4158V30.9778H19.8219V29.808Z" fill="#121617"/>
<path d="M16.6209 6.82951C16.0259 6.82951 15.2461 7.01752 14.7331 7.2473C14.5279 7.01752 14.1586 6.80863 13.4609 6.80863C12.7838 6.80863 11.8809 7.14286 11.6757 7.22642C11.4705 7.30997 11.3679 7.2473 11.3679 7.2473C11.3679 7.2473 12.3118 6.74596 12.3118 5.63881C12.3118 4.13477 10.937 3.96765 10.937 3.96765V2.15027H11.9425V1.54447H10.937V0.5H10.5882H10.2393V1.54447H9.21334V2.15027H10.2188V3.96765C10.2188 3.96765 8.84398 4.11388 8.84398 5.63881C8.84398 6.74596 9.78789 7.2473 9.78789 7.2473C9.78789 7.2473 9.70581 7.30997 9.50061 7.22642C9.29542 7.14286 8.41307 6.80863 7.7154 6.80863C7.03825 6.80863 6.6689 7.01752 6.44319 7.2473C5.93019 7.01752 5.15045 6.82951 4.55538 6.82951C3.50888 6.82951 2.35977 7.66509 2.44185 8.70957C2.54445 9.73315 3.46784 13.5142 3.46784 13.5142H10.5882H17.7085C17.7085 13.5142 18.6319 9.75404 18.7139 8.70957C18.8165 7.68598 17.688 6.82951 16.6209 6.82951ZM6.52526 11.1536C6.52526 11.279 6.07383 12.3026 4.88369 12.3026C3.71407 12.3026 3.07796 11.4043 3.119 10.7358C3.18056 10.6941 3.3242 10.6523 3.38576 10.715C3.44732 10.7776 3.81667 11.2163 4.10394 11.2163C4.30914 11.2163 4.61694 10.9656 4.61694 10.5896C4.61694 10.2136 4.35018 9.85849 4.14498 9.85849C3.79615 9.85849 3.54991 10.3389 3.40628 10.3598C3.26264 10.3807 3.09848 10.2763 3.18056 10.1301C3.24212 9.98383 3.69355 9.75404 3.69355 9.31536C3.69355 8.85579 3.26264 8.73046 3.03692 8.75135C3.03692 8.31267 3.38576 7.39353 4.74005 7.39353C6.09435 7.39353 6.29955 7.62332 6.29955 7.62332V8.75135C6.29955 8.75135 5.95071 8.93935 5.95071 9.29447C5.95071 9.6496 6.42267 10.0883 6.42267 10.0883V10.3181C6.42267 10.3181 6.34059 10.3807 6.17643 10.2554C6.03279 10.1092 5.725 9.87938 5.5198 9.87938C5.3146 9.87938 5.02733 10.1301 5.02733 10.527C5.02733 10.9239 5.25305 11.1954 5.47876 11.1954C5.70448 11.1954 6.11487 10.8403 6.15591 10.7985C6.23799 10.7358 6.42267 10.715 6.48422 10.715C6.52526 10.715 6.52526 11.0283 6.52526 11.1536ZM10.3214 11.1536C10.3214 11.279 9.80841 12.3026 8.61827 12.3026C7.42813 12.3026 6.91514 11.279 6.91514 11.1536C6.91514 11.0283 6.89462 10.715 6.95618 10.715C7.01774 10.715 7.20241 10.7358 7.26397 10.7985C7.32553 10.8612 7.73592 11.1954 7.94112 11.1954C8.14632 11.1954 8.39255 10.9447 8.39255 10.527C8.39255 10.1301 8.1258 9.87938 7.9206 9.87938C7.7154 9.87938 7.40761 10.1092 7.24345 10.2554C7.07929 10.4016 6.99722 10.3389 6.99722 10.3389V10.0883C6.99722 10.0883 7.46917 9.62871 7.46917 9.29447C7.46917 8.96024 7.09981 8.73046 7.09981 8.73046C7.09981 8.73046 7.09981 8.31267 7.09981 7.8531C7.09981 7.41442 7.53073 7.35175 7.87956 7.35175C8.22839 7.35175 9.62373 7.56065 10.1367 7.66509L10.1162 8.77224C10.1162 8.77224 9.76737 8.96024 9.76737 9.31536C9.76737 9.67048 10.2393 10.1092 10.2393 10.1092V10.3389C10.2393 10.3389 10.1572 10.4016 9.99308 10.2763C9.82893 10.1092 9.52113 9.87938 9.31594 9.87938C9.11074 9.87938 8.84398 10.1301 8.84398 10.527C8.84398 10.9239 9.0697 11.1954 9.29542 11.1954C9.52113 11.1954 9.93153 10.8403 9.97257 10.7985C10.0341 10.7358 10.2188 10.715 10.2804 10.715C10.3214 10.715 10.3214 11.0283 10.3214 11.1536ZM14.2612 11.1536C14.2612 11.279 13.7482 12.3026 12.558 12.3026C11.3884 12.3026 10.8549 11.279 10.8549 11.1536C10.8549 11.0283 10.8344 10.715 10.8959 10.715C10.9575 10.715 11.1422 10.7358 11.2037 10.7985C11.2653 10.8612 11.6552 11.1954 11.8809 11.1954C12.1066 11.1954 12.3323 10.9447 12.3323 10.527C12.3323 10.1301 12.0656 9.87938 11.8604 9.87938C11.6552 9.87938 11.3474 10.1092 11.1832 10.2554C11.0191 10.4016 10.937 10.3389 10.937 10.3389V10.0883C10.937 10.0883 11.4089 9.6496 11.4089 9.29447C11.4089 8.93935 11.0601 8.75135 11.0601 8.75135L11.0396 7.66509C11.5526 7.56065 12.9479 7.35175 13.2967 7.35175C13.6456 7.35175 14.0765 7.41442 14.0765 7.8531C14.0765 8.29178 14.056 8.73046 14.056 8.73046C14.056 8.73046 13.6866 8.93935 13.6866 9.29447C13.6866 9.6496 14.1586 10.0883 14.1586 10.0883V10.3181C14.1586 10.3181 14.0765 10.3807 13.9123 10.2554C13.7687 10.1092 13.4609 9.87938 13.2557 9.87938C13.0505 9.87938 12.7838 10.1301 12.7838 10.527C12.7838 10.9239 13.0095 11.1954 13.2352 11.1954C13.4609 11.1954 13.8713 10.8403 13.9123 10.7985C13.9739 10.7358 14.1586 10.715 14.2201 10.715C14.2817 10.715 14.2612 11.0283 14.2612 11.1536ZM17.9958 10.1301C18.0573 10.2763 17.8932 10.3598 17.7495 10.3598C17.6059 10.3389 17.3802 9.85849 17.0108 9.85849C16.7851 9.85849 16.5389 10.2972 16.5389 10.5896C16.5389 10.8821 16.9082 11.2163 17.0518 11.2163C17.3391 11.2163 17.7085 10.7776 17.77 10.715C17.8521 10.6523 17.9957 10.6941 18.0573 10.7358C18.0983 11.3834 17.4622 12.3026 16.2926 12.3026C15.123 12.3026 14.651 11.279 14.651 11.1536C14.651 11.0283 14.6305 10.715 14.6921 10.715C14.7536 10.715 14.9383 10.7358 14.9999 10.7985C15.0614 10.8612 15.4513 11.1954 15.677 11.1954C15.9027 11.1954 16.149 10.9447 16.149 10.527C16.149 10.1301 15.8822 9.87938 15.677 9.87938C15.4718 9.87938 15.164 10.1092 14.9999 10.2554C14.8152 10.4016 14.7331 10.3389 14.7331 10.3389V10.0883C14.7331 10.0883 15.2051 9.6496 15.2051 9.29447C15.2051 8.93935 14.8562 8.75135 14.8562 8.75135V7.6442C14.8562 7.6442 15.0614 7.41442 16.4157 7.41442C17.77 7.41442 18.1189 8.31267 18.1189 8.77224C17.9137 8.73046 17.4828 8.85579 17.4828 9.31536C17.4828 9.75404 17.9342 9.98383 17.9958 10.1301ZM17.0108 9.85849C16.7851 9.85849 16.5389 10.1092 16.5389 10.5896C16.5389 11.0701 16.9082 11.2163 17.0518 11.2163" fill="#121617"/>
</g>
<defs>
<clipPath id="clip0_844:18563">
<rect width="154" height="31" fill="white" transform="translate(0 0.5)"/>
</clipPath>
</defs>
</svg>
